<svg xmlns="http://www.w3.org/2000/svg" xmlns:xlink="http://www.w3.org/1999/xlink" fill="none" version="1.1" width="24" height="24" viewBox="0 0 24 24"><g><g><g><g><path d="M16.9,22.75C16.9,22.75,7.10001,22.75,7.10001,22.75C4.98001,22.75,3.25,21.02,3.25,18.9C3.25,18.9,3.25,5.10001,3.25,5.10001C3.25,2.98001,4.98001,1.25,7.10001,1.25C7.10001,1.25,16.9,1.25,16.9,1.25C19.02,1.25,20.75,2.98001,20.75,5.10001C20.75,5.10001,20.75,18.9,20.75,18.9C20.75,21.02,19.02,22.75,16.9,22.75C16.9,22.75,16.9,22.75,16.9,22.75ZM7.10001,2.75C5.81001,2.75,4.75,3.80001,4.75,5.10001C4.75,5.10001,4.75,18.9,4.75,18.9C4.75,20.19,5.80001,21.25,7.10001,21.25C7.10001,21.25,16.9,21.25,16.9,21.25C18.189999999999998,21.25,19.25,20.2,19.25,18.9C19.25,18.9,19.25,5.10001,19.25,5.10001C19.25,3.81001,18.2,2.75,16.9,2.75C16.9,2.75,7.10001,2.75,7.10001,2.75C7.10001,2.75,7.10001,2.75,7.10001,2.75Z" fill="#292D32" fill-opacity="1"/></g><g><path d="M18.5,13.75C18.5,13.75,5.5,13.75,5.5,13.75C4.26,13.75,3.25,12.74,3.25,11.5C3.25,11.5,3.25,9.5,3.25,9.5C3.25,8.26,4.26,7.25,5.5,7.25C5.5,7.25,18.5,7.25,18.5,7.25C19.74,7.25,20.75,8.26,20.75,9.5C20.75,9.5,20.75,11.5,20.75,11.5C20.75,12.74,19.74,13.75,18.5,13.75C18.5,13.75,18.5,13.75,18.5,13.75ZM5.5,8.75C5.09,8.75,4.75,9.09,4.75,9.5C4.75,9.5,4.75,11.5,4.75,11.5C4.75,11.91,5.09,12.25,5.5,12.25C5.5,12.25,18.5,12.25,18.5,12.25C18.91,12.25,19.25,11.91,19.25,11.5C19.25,11.5,19.25,9.5,19.25,9.5C19.25,9.09,18.91,8.75,18.5,8.75C18.5,8.75,5.5,8.75,5.5,8.75C5.5,8.75,5.5,8.75,5.5,8.75Z" fill="#292D32" fill-opacity="1"/></g><g><path d="M8,18.750078125C7.67,18.750078125,7.349995,18.620088125,7.119995,18.380088125C7.059995,18.330088125,7.010007,18.260088125,6.960007,18.190088125C6.920007,18.130088125,6.880006,18.050098125,6.850006,17.980098125C6.8100061,17.900098125,6.7900043,17.820078125,6.7700043,17.740078125C6.7600043,17.660078125,6.75,17.580078125,6.75,17.500078125C6.75,17.420078125,6.7600043,17.340088125,6.7700043,17.260093125C6.7900043,17.180093125,6.8100061,17.100072125,6.850006,17.020072125C6.880006,16.950072125,6.920007,16.870080125,6.960007,16.810080125C7.010007,16.740080125,7.059995,16.670078125,7.119995,16.620078125C7.579995,16.150078125,8.41,16.150078125,8.879999999999999,16.620078125C8.94,16.670078125,8.98999,16.740080125,9.03999,16.810080125C9.07999,16.870080125,9.11999,16.950072125,9.149989999999999,17.020072125C9.18999,17.100072125,9.21,17.180093125,9.23,17.260093125C9.24,17.340088125,9.25,17.420078125,9.25,17.500078125C9.25,17.580078125,9.24,17.660078125,9.23,17.740078125C9.21,17.820078125,9.18999,17.900098125,9.149989999999999,17.980098125C9.11999,18.050098125,9.07999,18.130088125,9.03999,18.190088125C8.98999,18.260088125,8.94,18.330088125,8.879999999999999,18.380088125C8.65,18.620088125,8.33,18.750078125,8,18.750078125C8,18.750078125,8,18.750078125,8,18.750078125Z" fill="#292D32" fill-opacity="1"/></g><g><path d="M16,18.750078125C15.67,18.750078125,15.349995,18.620088125,15.119995,18.380088125C14.879995,18.150088125,14.75,17.830078125,14.75,17.500078125C14.75,17.170083125,14.879995,16.850078125,15.119995,16.620078125C15.579995,16.150078125,16.42,16.150078125,16.88,16.620078125C17.12,16.850078125,17.25,17.170083125,17.25,17.500078125C17.25,17.830078125,17.12,18.150088125,16.88,18.380088125C16.65,18.620088125,16.33,18.750078125,16,18.750078125C16,18.750078125,16,18.750078125,16,18.750078125Z" fill="#292D32" fill-opacity="1"/></g><g><path d="M14.5,5.75C14.5,5.75,9.5,5.75,9.5,5.75C9.09,5.75,8.75,5.41,8.75,5C8.75,4.59,9.09,4.25,9.5,4.25C9.5,4.25,14.5,4.25,14.5,4.25C14.91,4.25,15.25,4.59,15.25,5C15.25,5.41,14.91,5.75,14.5,5.75C14.5,5.75,14.5,5.75,14.5,5.75Z" fill="#292D32" fill-opacity="1"/></g><g style="opacity:0;"></g></g></g></g></svg>