<svg xmlns="http://www.w3.org/2000/svg" xmlns:xlink="http://www.w3.org/1999/xlink" fill="none" version="1.1" width="24" height="24" viewBox="0 0 24 24"><g><g><g><g><path d="M5.539996714859009,19.51958125C4.9299967148590085,19.51958125,4.359996714859009,19.30958125,3.949999714859009,18.91958125C3.429999714859009,18.42958125,3.180000014859009,17.68958125,3.2700000148590087,16.88958125C3.2700000148590087,16.88958125,3.639999714859009,13.64958125,3.639999714859009,13.64958125C3.7099997148590087,13.03958125,4.0800007148590085,12.22958125,4.5099967148590085,11.78958125C4.5099967148590085,11.78958125,12.71999671485901,3.09956125,12.71999671485901,3.09956125C14.76996671485901,0.92956025,16.90996671485901,0.86956125,19.079966714859008,2.91956125C21.24996671485901,4.96956125,21.30996671485901,7.10956125,19.259966714859008,9.27956125C19.259966714859008,9.27956125,11.04999671485901,17.96958125,11.04999671485901,17.96958125C10.629996714859008,18.41958125,9.849996714859008,18.83958125,9.239996714859009,18.93958125C9.239996714859009,18.93958125,6.019996714859008,19.48958125,6.019996714859008,19.48958125C5.849996714859008,19.49958125,5.699996714859009,19.51958125,5.539996714859009,19.51958125C5.539996714859009,19.51958125,5.539996714859009,19.51958125,5.539996714859009,19.51958125ZM15.92996671485901,2.9095612500000003C15.159966714859008,2.9095612500000003,14.489966714859008,3.38956125,13.809966714859009,4.1095612500000005C13.809966714859009,4.1095612500000005,5.599996714859008,12.80958125,5.599996714859008,12.80958125C5.399996714859009,13.01958125,5.169996714859009,13.51958125,5.129996714859009,13.80958125C5.129996714859009,13.80958125,4.7599967148590085,17.04958125,4.7599967148590085,17.04958125C4.7199967148590085,17.37958125,4.799996714859009,17.64958125,4.979996714859009,17.81958125C5.159996714859009,17.98958125,5.4299967148590085,18.04958125,5.7599967148590085,17.99958125C5.7599967148590085,17.99958125,8.97999671485901,17.44958125,8.97999671485901,17.44958125C9.269996714859008,17.39958125,9.749996714859009,17.13958125,9.949996714859008,16.92958125C9.949996714859008,16.92958125,18.15996671485901,8.239561250000001,18.15996671485901,8.239561250000001C19.39996671485901,6.91956125,19.849966714859008,5.69956125,18.03996671485901,3.99956125C17.23996671485901,3.2295612499999997,16.54996671485901,2.9095612500000003,15.92996671485901,2.9095612500000003C15.92996671485901,2.9095612500000003,15.92996671485901,2.9095612500000003,15.92996671485901,2.9095612500000003Z" fill="#292D32" fill-opacity="1"/></g><g><path d="M17.3399979208374,10.9498478125C17.3199979208374,10.9498478125,17.2899979208374,10.9498478125,17.2699979208374,10.9498478125C14.149997920837402,10.639847812500001,11.639999920837402,8.2698478125,11.159999590837403,5.1698498125C11.099999620837403,4.7598498125,11.379999920837403,4.3798495125,11.789999920837403,4.3098494825C12.199997920837403,4.2498495125,12.579997920837403,4.5298498125,12.649997920837402,4.9398498125C13.029997920837403,7.3598478125,14.989997920837402,9.2198478125,17.4299979208374,9.4598478125C17.8399979208374,9.4998478125,18.139997920837402,9.8698478125,18.099997920837403,10.2798478125C18.049997920837402,10.6598478125,17.7199979208374,10.9498478125,17.3399979208374,10.9498478125C17.3399979208374,10.9498478125,17.3399979208374,10.9498478125,17.3399979208374,10.9498478125Z" fill="#292D32" fill-opacity="1"/></g><g><path d="M21,22.75C21,22.75,3,22.75,3,22.75C2.59,22.75,2.25,22.41,2.25,22C2.25,21.59,2.59,21.25,3,21.25C3,21.25,21,21.25,21,21.25C21.41,21.25,21.75,21.59,21.75,22C21.75,22.41,21.41,22.75,21,22.75C21,22.75,21,22.75,21,22.75Z" fill="#292D32" fill-opacity="1"/></g><g style="opacity:0;"></g></g></g></g></svg>