<svg xmlns="http://www.w3.org/2000/svg" xmlns:xlink="http://www.w3.org/1999/xlink" fill="none" version="1.1" width="24" height="24" viewBox="0 0 24 24"><defs><clipPath id="master_svg0_144_18262"><rect x="0" y="0" width="24" height="24" rx="0"/></clipPath></defs><g clip-path="url(#master_svg0_144_18262)"><g transform="matrix(-1,0,0,1,38.0595703125,0)"><path d="M23.62353515625,21.068575C21.84228515625,20.794975,20.43603515625,19.244775,20.43603515625,17.420975L20.43603515625,9.852375C20.43603515625,6.843155,22.68603515625,4.198685,25.68603515625,3.8339350000000003C29.43598515625,3.286801,32.62358515625,6.113645,32.62358515625,9.669995L32.62358515625,16.417975L34.02978515625,16.417975L34.02978515625,9.943565C34.02978515625,6.022455,31.02978515625,2.648481,26.99853515625,2.3749155C22.68603515625,2.10135,19.02978515625,5.475325,19.02978515625,9.669995L19.02978515625,17.420975C19.02978515625,19.883075,20.90478515625,21.980475,23.34228515625,22.345175C23.81103515625,22.436375,24.18603515625,22.071675,24.18603515625,21.706875C24.18603515625,21.342175,23.90478515625,21.068575,23.62353515625,21.068575Z" fill="#000000" fill-opacity="1" style="mix-blend-mode:passthrough"/></g><g transform="matrix(-1,0,0,1,44.513671875,0)"><path d="M25.4525159375,11.702145625L24.0828859375,11.702145625C23.8089759375,11.702145625,23.6263459375,11.872735625,23.6263459375,12.129885625L23.6263459375,14.702145625C23.6263459375,14.959295625,23.8089759375,15.129885625,24.0828859375,15.129885625L25.4525159375,15.129885625L25.4525159375,11.702145625ZM24.0828859375,10.416015625L26.8220259375,10.416015625L26.8220259375,16.416015625L24.0828859375,16.416015625C23.0785379375,16.416015625,22.2568359375,15.645005625,22.2568359375,14.702145625L22.2568359375,12.129885625C22.2568359375,11.187025625,23.0785379375,10.416015625,24.0828859375,10.416015625ZM40.4525359375,11.702145625L41.8221359375,11.702145625C42.096035937500005,11.702145625,42.2787359375,11.872735625,42.2787359375,12.129885625L42.2787359375,14.702145625C42.2787359375,14.959295625,42.096035937500005,15.129885625,41.8221359375,15.129885625L40.4525359375,15.129885625L40.4525359375,11.702145625ZM41.8221359375,10.416015625L39.0830359375,10.416015625L39.0830359375,16.416015625L41.8221359375,16.416015625C42.8265359375,16.416015625,43.648235937500004,15.645005625,43.648235937500004,14.702145625L43.648235937500004,12.129885625C43.648235937500004,11.187025625,42.8265359375,10.416015625,41.8221359375,10.416015625Z" fill="#000000" fill-opacity="1" style="mix-blend-mode:passthrough"/></g><g transform="matrix(-1,0,0,1,26.0595703125,0)"><path d="M14.02978515625,20.359375L15.02978515625,20.359375C15.62978515625,20.359375,16.02978515625,20.759375,16.02978515625,21.359375C16.02978515625,21.959375,15.62978515625,22.359375,15.02978515625,22.359375L14.02978515625,22.359375C13.42978515625,22.359375,13.02978515625,21.959375,13.02978515625,21.359375C13.02978515625,20.759375,13.42978515625,20.359375,14.02978515625,20.359375Z" fill="#000000" fill-opacity="1" style="mix-blend-mode:passthrough"/></g></g></svg>