<svg xmlns="http://www.w3.org/2000/svg" xmlns:xlink="http://www.w3.org/1999/xlink" fill="none" version="1.1" width="24" height="24" viewBox="0 0 24 24"><g><g><g><g><path d="M17.921703,16C17.687424,16,17.453144,15.915379999999999,17.268187,15.73404C16.9106042,15.38345,16.9106042,14.80317,17.268187,14.45259C17.268187,14.45259,19.77127,11.99849,19.77127,11.99849C19.77127,11.99849,17.268187,9.54439,17.268187,9.54439C16.9106042,9.1938,16.9106042,8.613525,17.268187,8.262939C17.625771,7.9123536,18.21763,7.9123536,18.57522,8.262939C18.57522,8.262939,21.73181,11.357759999999999,21.73181,11.357759999999999C22.08939,11.70835,22.08939,12.288630000000001,21.73181,12.63921C21.73181,12.63921,18.57522,15.73404,18.57522,15.73404C18.39026,15.915379999999999,18.15598,16,17.921703,16C17.921703,16,17.921703,16,17.921703,16Z" fill="#292D32" fill-opacity="1"/></g><g><path d="M21.1645,13C21.1645,13,9.835476,13,9.835476,13C9.378749,13,9,12.54667,9,12C9,11.453333,9.378749,11,9.835476,11C9.835476,11,21.1645,11,21.1645,11C21.621299999999998,11,22,11.453333,22,12C22,12.54667,21.621299999999998,13,21.1645,13C21.1645,13,21.1645,13,21.1645,13Z" fill="#292D32" fill-opacity="1"/></g><g><path d="M12.1316,22C6.16842,22,2,17.8857,2,12C2,6.11429,6.16842,2,12.1316,2C12.6063,2,13,2.3885709999999998,13,2.8571429999999998C13,3.32571,12.6063,3.71429,12.1316,3.71429C7.18737,3.71429,3.73684,7.12,3.73684,12C3.73684,16.880000000000003,7.18737,20.2857,12.1316,20.2857C12.6063,20.2857,13,20.6743,13,21.1429C13,21.6114,12.6063,22,12.1316,22C12.1316,22,12.1316,22,12.1316,22Z" fill="#292D32" fill-opacity="1"/></g><g style="opacity:0;"></g></g></g></g></svg>