<svg xmlns="http://www.w3.org/2000/svg" xmlns:xlink="http://www.w3.org/1999/xlink" fill="none" version="1.1" width="24" height="24" viewBox="0 0 24 24"><g><g><g><g><path d="M12,22.749765625C11.3,22.749765625,10.59,22.479765625,10.059999999999999,21.949765625C10.059999999999999,21.949765625,8.350010000000001,20.259765625,8.350010000000001,20.259765625C7.93001,19.839765625,7.35001,19.609765625,6.76001,19.609765625C6.76001,19.609765625,6,19.609765625,6,19.609765625C3.9299999999999997,19.609765625,2.25,17.939765625,2.25,15.889765625C2.25,15.889765625,2.25,4.979735625,2.25,4.979735625C2.25,2.929735625,3.9299999999999997,1.259765625,6,1.259765625C6,1.259765625,18,1.259765625,18,1.259765625C20.07,1.259765625,21.75,2.929735625,21.75,4.979735625C21.75,4.979735625,21.75,15.889765625,21.75,15.889765625C21.75,17.939765625,20.07,19.609765625,18,19.609765625C18,19.609765625,17.240000000000002,19.609765625,17.240000000000002,19.609765625C16.65,19.609765625,16.07,19.849765625,15.65,20.259765625C15.65,20.259765625,13.94,21.949765625,13.94,21.949765625C13.41,22.479765625,12.7,22.749765625,12,22.749765625C12,22.749765625,12,22.749765625,12,22.749765625ZM6,2.7497556249999997C4.76,2.7497556249999997,3.75,3.749725625,3.75,4.969725625000001C3.75,4.969725625000001,3.75,15.879765625,3.75,15.879765625C3.75,17.109765625,4.76,18.099765625,6,18.099765625C6,18.099765625,6.76001,18.099765625,6.76001,18.099765625C7.75001,18.099765625,8.71,18.499765625,9.41,19.189765625C9.41,19.189765625,11.12,20.879765625,11.12,20.879765625C11.60999,21.359765625,12.4,21.359765625,12.89,20.879765625C12.89,20.879765625,14.6,19.189765625,14.6,19.189765625C15.3,18.499765625,16.259999999999998,18.099765625,17.25,18.099765625C17.25,18.099765625,18,18.099765625,18,18.099765625C19.24,18.099765625,20.25,17.099765625,20.25,15.879765625C20.25,15.879765625,20.25,4.969725625000001,20.25,4.969725625000001C20.25,3.739725625,19.24,2.7497556249999997,18,2.7497556249999997C18,2.7497556249999997,6,2.7497556249999997,6,2.7497556249999997C6,2.7497556249999997,6,2.7497556249999997,6,2.7497556249999997Z" fill="#AAB1B9" fill-opacity="1"/></g><g><path d="M11.999941875000001,10.749813750000001C10.299941875,10.749813750000001,8.919921875,9.369803749999999,8.919921875,7.66980375C8.919921875,5.9698037500000005,10.299941875,4.58984375,11.999941875000001,4.58984375C13.699941875,4.58984375,15.079951874999999,5.9698037500000005,15.079951874999999,7.66980375C15.079951874999999,9.369803749999999,13.699941875,10.749813750000001,11.999941875000001,10.749813750000001C11.999941875000001,10.749813750000001,11.999941875000001,10.749813750000001,11.999941875000001,10.749813750000001ZM11.999941875000001,6.08984375C11.129941875,6.08984375,10.419921875,6.799803750000001,10.419921875,7.66980375C10.419921875,8.53980375,11.129941875,9.249813750000001,11.999941875000001,9.249813750000001C12.869941875,9.249813750000001,13.579951874999999,8.53980375,13.579951874999999,7.66980375C13.579951874999999,6.799803750000001,12.869941875,6.08984375,11.999941875000001,6.08984375C11.999941875000001,6.08984375,11.999941875000001,6.08984375,11.999941875000001,6.08984375Z" fill="#AAB1B9" fill-opacity="1"/></g><g><path d="M16,16.410340625C15.59,16.410340625,15.25,16.070340625,15.25,15.660340625C15.25,14.280340625000001,13.79,13.150390625,12,13.150390625C10.21,13.150390625,8.75,14.280340625000001,8.75,15.660340625C8.75,16.070340625,8.41,16.410340625,8,16.410340625C7.59,16.410340625,7.25,16.070340625,7.25,15.660340625C7.25,13.450340624999999,9.379999999999999,11.650390625,12,11.650390625C14.620000000000001,11.650390625,16.75,13.450340624999999,16.75,15.660340625C16.75,16.070340625,16.41,16.410340625,16,16.410340625C16,16.410340625,16,16.410340625,16,16.410340625Z" fill="#AAB1B9" fill-opacity="1"/></g><g style="opacity:0;"></g></g></g></g></svg>