<svg xmlns="http://www.w3.org/2000/svg" xmlns:xlink="http://www.w3.org/1999/xlink" fill="none" version="1.1" width="24" height="24" viewBox="0 0 24 24"><g><g><g><g><path d="M8,5.75C7.59,5.75,7.25,5.41,7.25,5C7.25,5,7.25,2,7.25,2C7.25,1.59,7.59,1.25,8,1.25C8.41,1.25,8.75,1.59,8.75,2C8.75,2,8.75,5,8.75,5C8.75,5.41,8.41,5.75,8,5.75C8,5.75,8,5.75,8,5.75Z" fill="#292D32" fill-opacity="1"/></g><g><path d="M16,5.75C15.59,5.75,15.25,5.41,15.25,5C15.25,5,15.25,2,15.25,2C15.25,1.59,15.59,1.25,16,1.25C16.41,1.25,16.75,1.59,16.75,2C16.75,2,16.75,5,16.75,5C16.75,5.41,16.41,5.75,16,5.75C16,5.75,16,5.75,16,5.75Z" fill="#292D32" fill-opacity="1"/></g><g><path d="M15,11.75C15,11.75,7,11.75,7,11.75C6.59,11.75,6.25,11.41,6.25,11C6.25,10.59,6.59,10.25,7,10.25C7,10.25,15,10.25,15,10.25C15.41,10.25,15.75,10.59,15.75,11C15.75,11.41,15.41,11.75,15,11.75C15,11.75,15,11.75,15,11.75Z" fill="#292D32" fill-opacity="1"/></g><g><path d="M12,15.75C12,15.75,7,15.75,7,15.75C6.59,15.75,6.25,15.41,6.25,15C6.25,14.59,6.59,14.25,7,14.25C7,14.25,12,14.25,12,14.25C12.41,14.25,12.75,14.59,12.75,15C12.75,15.41,12.41,15.75,12,15.75C12,15.75,12,15.75,12,15.75Z" fill="#292D32" fill-opacity="1"/></g><g><path d="M15,22.75C15,22.75,9,22.75,9,22.75C3.38,22.75,2.25,20.1,2.25,15.82C2.25,15.82,2.25,9.65,2.25,9.65C2.25,4.91,3.85,2.98,7.96,2.75C7.96,2.75,16,2.75,16,2.75C20.15,2.98,21.75,4.91,21.75,9.65C21.75,9.65,21.75,16,21.75,16C21.75,16.41,21.41,16.75,21,16.75C20.59,16.75,20.25,16.41,20.25,16C20.25,16,20.25,9.65,20.25,9.65C20.25,5.29,18.8,4.41,15.96,4.25C15.96,4.25,8,4.25,8,4.25C5.2,4.41,3.75,5.29,3.75,9.65C3.75,9.65,3.75,15.82,3.75,15.82C3.75,19.65,4.48,21.25,9,21.25C9,21.25,15,21.25,15,21.25C15.41,21.25,15.75,21.59,15.75,22C15.75,22.41,15.41,22.75,15,22.75C15,22.75,15,22.75,15,22.75Z" fill="#292D32" fill-opacity="1"/></g><g><path d="M15,22.75C14.9,22.75,14.81,22.73,14.71,22.69C14.43,22.57,14.25,22.3,14.25,22C14.25,22,14.25,19,14.25,19C14.25,16.58,15.58,15.25,18,15.25C18,15.25,21,15.25,21,15.25C21.3,15.25,21.58,15.43,21.69,15.71C21.81,15.99,21.740000000000002,16.31,21.53,16.53C21.53,16.53,15.53,22.53,15.53,22.53C15.39,22.67,15.2,22.75,15,22.75C15,22.75,15,22.75,15,22.75ZM18,16.75C16.42,16.75,15.75,17.42,15.75,19C15.75,19,15.75,20.19,15.75,20.19C15.75,20.19,19.19,16.75,19.19,16.75C19.19,16.75,18,16.75,18,16.75C18,16.75,18,16.75,18,16.75Z" fill="#292D32" fill-opacity="1"/></g><g style="opacity:0;"></g></g></g></g></svg>