<svg xmlns="http://www.w3.org/2000/svg" xmlns:xlink="http://www.w3.org/1999/xlink" fill="none" version="1.1" width="375" height="266" viewBox="0 0 375 266"><defs><linearGradient x1="0.5" y1="0" x2="0.5" y2="1" id="master_svg0_23_02569"><stop offset="0%" stop-color="#047DFF" stop-opacity="1"/><stop offset="100%" stop-color="#59A9FF" stop-opacity="1"/></linearGradient><linearGradient x1="0.5" y1="0" x2="0.5" y2="1" id="master_svg1_126_8680"><stop offset="0%" stop-color="#FFFFFF" stop-opacity="1"/><stop offset="100%" stop-color="#FFFFFF" stop-opacity="1"/></linearGradient><mask id="master_svg2_144_18089" style="mask-type:alpha" maskUnits="userSpaceOnUse"><g><rect x="0" y="0" width="375" height="266" rx="0" fill="url(#master_svg1_126_8680)" fill-opacity="1"/></g></mask><mask id="master_svg3_144_18081" style="mask-type:alpha" maskUnits="userSpaceOnUse"><g><rect x="102" y="-19" width="300" height="204" rx="12" fill="#FFFFFF" fill-opacity="1"/></g></mask><linearGradient x1="0.8333332538604736" y1="0.09689918160438538" x2="0.333333283662796" y2="0.5038759708404541" id="master_svg4_23_02578"><stop offset="0%" stop-color="#FFFFFF" stop-opacity="1"/><stop offset="100%" stop-color="#FFFFFF" stop-opacity="0"/></linearGradient><mask id="master_svg5_144_18079" style="mask-type:alpha" maskUnits="userSpaceOnUse"><g><rect x="102" y="-19" width="300" height="204" rx="12" fill="#FFFFFF" fill-opacity="1"/></g></mask><linearGradient x1="0.276699036359787" y1="4.687073840159428e-9" x2="0.5048544406890869" y2="0.5679611563682556" id="master_svg6_23_02593"><stop offset="0%" stop-color="#FFFFFF" stop-opacity="1"/><stop offset="100%" stop-color="#FFFFFF" stop-opacity="0"/></linearGradient><mask id="master_svg7_144_18088" style="mask-type:alpha" maskUnits="userSpaceOnUse"><g><rect x="102" y="-16.68181824684143" width="297.6833801269531" height="201.6818084716797" rx="12" fill="#FFFFFF" fill-opacity="1"/></g></mask><linearGradient x1="0.5" y1="0" x2="0.47183099389076233" y2="0.5985915660858154" id="master_svg8_23_02587"><stop offset="0%" stop-color="#FFFFFF" stop-opacity="1"/><stop offset="100%" stop-color="#FFFFFF" stop-opacity="0"/></linearGradient><mask id="master_svg9_144_18085" style="mask-type:alpha" maskUnits="userSpaceOnUse"><g><rect x="102" y="-16.68181824684143" width="297.6833801269531" height="201.6818084716797" rx="12" fill="#FFFFFF" fill-opacity="1"/></g></mask><linearGradient x1="0.5000000596046448" y1="2.7326909624036944e-9" x2="0.4541530907154083" y2="0.5030874013900757" id="master_svga_23_02583"><stop offset="0%" stop-color="#FFFFFF" stop-opacity="1"/><stop offset="100%" stop-color="#FFFFFF" stop-opacity="0"/></linearGradient><linearGradient x1="315" y1="146" x2="315" y2="206" gradientUnits="userSpaceOnUse" id="master_svgb_126_8689"><stop offset="0%" stop-color="#FFFFFF" stop-opacity="1"/><stop offset="100%" stop-color="#FFFFFF" stop-opacity="0"/></linearGradient><linearGradient x1="285" y1="206" x2="285" y2="266" gradientUnits="userSpaceOnUse" id="master_svgc_126_8689"><stop offset="0%" stop-color="#FFFFFF" stop-opacity="1"/><stop offset="100%" stop-color="#FFFFFF" stop-opacity="0"/></linearGradient></defs><g><g><rect x="0" y="0" width="375" height="266" rx="0" fill="url(#master_svg0_23_02569)" fill-opacity="1"/></g><g mask="url(#master_svg2_144_18089)"><g><g mask="url(#master_svg3_144_18081)"><g><ellipse cx="312.23165130615234" cy="99.80681419372559" rx="87.45173645019531" ry="87.51136016845703" fill="url(#master_svg4_23_02578)" fill-opacity="0.5"/></g></g><g mask="url(#master_svg5_144_18079)"><g transform="matrix(0.9055455923080444,-0.42424893379211426,0.4237748682498932,0.905767560005188,-0.3720538994958815,66.12790610446382)"><ellipse cx="207.9918670654297" cy="93.62527847290039" rx="59.659820556640625" ry="59.68586730957031" fill="url(#master_svg6_23_02593)" fill-opacity="0.5"/></g></g><g mask="url(#master_svg7_144_18088)"><g transform="matrix(-0.9969496130943298,-0.07818996906280518,0.07790596038103104,-0.9969496130943298,574.3662087861319,308.6624583183559)"><ellipse cx="343.41577911376953" cy="193.33231139183044" rx="50.211830139160156" ry="50.24565124511719" fill="url(#master_svg8_23_02587)" fill-opacity="0.5"/></g></g><g mask="url(#master_svg9_144_18085)"><g transform="matrix(-0.7671722769737244,-0.6414410471916199,0.6409263610839844,-0.7676023840904236,211.85463013252001,517.0401426014648)"><ellipse cx="285.42840576171875" cy="305.7929437160492" rx="85.73831939697266" ry="85.74870300292969" fill="url(#master_svga_23_02583)" fill-opacity="0.5"/></g></g></g></g><g><g><path d="M273.54,195.32L282.3,195.32L282.3,148.64L290.22,148.64L290.22,203.12L273.54,203.12L273.54,195.32ZM256.98,193.88Q263.7,175.76,265.98,157.34L274.02,157.34Q271.74,176.06,265.92,193.88L256.98,193.88ZM305.34000000000003,157.88Q310.38,176.48,312.48,194.42000000000002L304.8,194.42000000000002Q302.64,176,297.24,157.88L305.34000000000003,157.88ZM320.7,152.96L320.76,152.96L320.76,150.26L369.48,150.26L369.48,180.5L328.5,180.5L328.5,194.6L372.24,194.6L372.24,202.4L320.7,202.4L320.7,152.96ZM341.34000000000003,172.94L341.34000000000003,157.82L328.5,157.82L328.5,172.94L341.34000000000003,172.94ZM361.8,172.94L361.8,157.82L348.9,157.82L348.9,172.94L361.8,172.94Z" fill="url(#master_svgb_126_8689)" fill-opacity="1"/></g><g><path d="M227.34,255.44Q216.6,261.62,199.86,263.3L199.86,255.74Q210.36,254.72,217.62,251.96L204.66,247.28L210.24,236.48L197.4,236.48L197.4,228.86L214.14,228.86L218.1,221.18L226.8,221.18L222.96,228.86L252.6,228.86L252.6,236.48L244.02,236.48Q240.6,244.64,234.6,250.16L249.9,255.68L249.9,263.6L227.34,255.44ZM198.66,211.58L221.04,211.58L221.04,207.8L228.96,207.8L228.96,211.58L251.34,211.58L251.34,224.6L243.54,224.6L243.54,219.02L206.46,219.02L206.46,224.6L198.66,224.6L198.66,211.58ZM226.5,247.22Q232.07999999999998,243.02,235.38,236.48L219.12,236.48L215.64,243.32L226.5,247.22ZM312.6,233.06Q306.18,231.26,300.72,227.66L300.72,231.98L288.9,231.98L288.9,238.82L306.65999999999997,238.82L306.65999999999997,246.26L288.9,246.26L288.9,254.06L310.98,254.06L310.98,261.74L259.02,261.74L259.02,254.06L281.1,254.06L281.1,246.26L263.34000000000003,246.26L263.34000000000003,238.82L281.1,238.82L281.1,231.98L269.28,231.98L269.28,227.66Q263.82,231.26,257.4,233.06L257.4,225.2Q264.54,222.32,268.71,218.39Q272.88,214.46,275.4,209L294.6,209Q297.12,214.46,301.29,218.39Q305.46,222.32,312.6,225.2L312.6,233.06ZM296.64,224.54Q292.56,221,290.04,216.68L279.96,216.68Q277.56,220.82,273.36,224.54L296.64,224.54ZM367.98,229.57999999999998L367.98,251.3L360.24,251.3L360.24,236.24L329.76,236.24L329.76,251.3L322.02,251.3L322.02,229.57999999999998L367.98,229.57999999999998ZM317.94,256.1Q328.56,254.06,334.40999999999997,249.59Q340.26,245.12,341.15999999999997,237.38L348.84000000000003,237.38Q348.06,248,340.53,254.6Q333,261.2,317.94,263.6L317.94,256.1ZM324.3,209.24L365.7,209.24L365.7,226.88L324.3,226.88L324.3,209.24ZM357.9,220.28L357.9,215.84L332.1,215.84L332.1,220.28L357.9,220.28ZM346.5,248.42000000000002L372,256.22L372,263.6L346.5,255.86L346.5,248.42000000000002Z" fill="url(#master_svgc_126_8689)" fill-opacity="1"/></g></g></g></svg>